# xmcd
#
# Track frame offsets:
#	150
#	2752
#	16098
#	20646
#	26502
#	32101
#	41544
#	52831
#	63493
#	74950
#	77971
#	90981
#	103423
#
# Disc length: 1520 seconds
#
# Revision: 0
# Processed by: cddbd v1.5.1PL2 Copyright (c) Steve Scherf et al.
# Submitted via: audiograbber 1.83.01
#
DISCID=a505ee0d
DTITLE=CHARLY PRIDE - CRYSTAL CHANDALIERS
DYEAR=1900
DGENRE=COUNTRY
TTITLE0=CHARLY PRIDE - ALL I HAVE TO OFFER YOU
TTITLE1=CHARLY PRIDE - I'M SO AFRAID OF LOSING YOU
TTITLE2=CHARLY PRIDE - WONDER COULD I LIVE THERE ANYMORE
TTITLE3=CHARLY PRIDE - I'D RATHER LOVE YOU
TTITLE4=CHARLY PRIDE - I'M JUST ME
TTITLE5=CHARLY PRIDE - KISS AN ANGEL GOOD MORNING
TTITLE6=CHARLY PRIDE - IT'S GOING TO TAKE A LITTLE BIT LONGER
TTITLE7=CHARLY PRIDE - MISSISSIPPI COTTON-PICKING DELTA DOWN
TTITLE8=CHARLY PRIDE - MY EYES CAN ONLY SEE AS FAR AS YOU
TTITLE9=CHARLY PRIDE - DOES MY RING HURT YOUR FINGER
TTITLE10=CHARLY PRIDE - KAW-LIGA
TTITLE11=CHARLY PRIDE - THERE'S MY BABY
TTITLE12=CHARLY PRIDE - OKLAHOMA MORNING
EXTD=
EXTT0=
EXTT1=
EXTT2=
EXTT3=
EXTT4=
EXTT5=
EXTT6=
EXTT7=
EXTT8=
EXTT9=
EXTT10=
EXTT11=
EXTT12=
PLAYORDER=
